<svg width="7" height="12" viewBox="0 0 7 12" fill="none" xmlns="http://www.w3.org/2000/svg">
<path d="M5.99988 11.5C5.86736 11.4982 5.74029 11.4469 5.64363 11.3562L0.643633 6.35623C0.549743 6.26143 0.49707 6.1334 0.49707 5.99998C0.49707 5.86656 0.549743 5.73853 0.643633 5.64373L5.64363 0.643731C5.74078 0.563999 5.86411 0.523253 5.98964 0.529419C6.11516 0.535584 6.23391 0.588219 6.32278 0.677086C6.41165 0.765954 6.46428 0.884699 6.47045 1.01023C6.47661 1.13575 6.43586 1.25908 6.35613 1.35623L1.70613 5.99998L6.35613 10.6437C6.45002 10.7385 6.5027 10.8666 6.5027 11C6.5027 11.1334 6.45002 11.2614 6.35613 11.3562C6.25947 11.4469 6.13241 11.4982 5.99988 11.5Z" fill="white"/>
</svg>
