<?xml version="1.0" encoding="utf-8"?>
<svg xmlns="http://www.w3.org/2000/svg" fill="none" height="49" viewBox="0 0 48 49" width="48">
<rect fill="#7289DA" height="48" rx="24" width="48" y="0.743164"/>
<g opacity="0.8">
<path d="M36.4003 15.6457C34.1009 13.8339 31.2966 12.7791 28.3731 12.6265L27.9763 13.1065C30.5861 13.8225 33.0209 15.0668 35.1299 16.7625C31.8675 14.9952 28.2416 14.0038 24.5338 13.865C20.826 13.7263 17.1362 14.444 13.7507 15.9625C12.7171 16.4425 12.0819 16.7625 12.0819 16.7625C14.3029 14.9913 16.8774 13.7163 19.6323 13.0233L19.3123 12.7033C16.3887 12.8564 13.5844 13.9117 11.2851 15.7241C8.65867 20.9026 7.24538 26.6111 7.15234 32.4169C8.14225 33.8034 9.45653 34.9266 10.9804 35.6883C12.5044 36.4499 14.1916 36.827 15.8947 36.7865C15.8947 36.7865 16.9283 35.5145 17.8019 34.4025C15.7992 33.8982 14.0313 32.7196 12.7955 31.0649C13.1616 31.3518 13.562 31.5921 13.9875 31.7801C16.7097 33.2547 19.7232 34.1118 22.8139 34.2904C25.9047 34.469 28.9968 33.9648 31.8707 32.8137C33.0107 32.3689 34.1027 31.8098 35.1299 31.1449C33.8743 32.8677 32.0403 34.0809 29.9635 34.5625C30.8371 35.6825 31.8707 36.8681 31.8707 36.8681C33.5741 36.9084 35.2614 36.5311 36.7853 35.7691C38.3092 35.0072 39.6234 33.8837 40.6131 32.4969C40.4859 26.6355 39.0463 20.8773 36.4003 15.6457ZM18.5123 29.6345C17.7037 29.5946 16.9429 29.2394 16.3931 28.6451C15.8433 28.0507 15.5484 27.2646 15.5715 26.4553C15.5387 26.0491 15.5903 25.6405 15.7232 25.2553C15.8561 24.8701 16.0674 24.5166 16.3436 24.217C16.6199 23.9175 16.9553 23.6785 17.3285 23.515C17.7018 23.3515 18.1049 23.267 18.5123 23.267C18.9198 23.267 19.3229 23.3515 19.6962 23.515C20.0694 23.6785 20.4048 23.9175 20.681 24.217C20.9573 24.5166 21.1686 24.8701 21.3015 25.2553C21.4343 25.6405 21.486 26.0491 21.4531 26.4553C21.4627 27.2608 21.1631 28.0393 20.6161 28.6307C20.0691 29.2221 19.3162 29.5813 18.5123 29.6345ZM28.9235 29.6345C28.1149 29.5946 27.3541 29.2394 26.8043 28.6451C26.2545 28.0507 25.9596 27.2646 25.9827 26.4553C26.0272 25.8832 26.2376 25.3365 26.5881 24.8821C26.9385 24.4278 27.4139 24.0854 27.9559 23.8971C28.4979 23.7088 29.0831 23.6826 29.6398 23.8217C30.1965 23.9609 30.7005 24.2594 31.0901 24.6806C31.4798 25.1018 31.7381 25.6276 31.8336 26.1934C31.929 26.7592 31.8574 27.3406 31.6274 27.8663C31.3975 28.392 31.0193 28.8393 30.539 29.1534C30.0588 29.4674 29.4974 29.6346 28.9235 29.6345Z" fill="#FDFDFD"/>
</g>
</svg>