<?xml version="1.0" encoding="utf-8"?>
<svg xmlns="http://www.w3.org/2000/svg" fill="none" height="28" viewBox="0 0 28 28" width="28">
<rect fill="#14181D" fill-opacity="0.5" height="26.5" rx="13.25" width="26.5" x="0.75" y="0.75"/>
<path d="M20.4938 19.2499C19.5608 17.6428 18.0675 16.4365 16.3 15.8624C17.1472 15.3587 17.8056 14.5907 18.1739 13.6765C18.5423 12.7623 18.6003 11.7524 18.3391 10.802C18.0779 9.85158 17.5119 9.01324 16.728 8.41574C15.9441 7.81824 14.9857 7.49463 14 7.49463C13.0144 7.49463 12.056 7.81824 11.2721 8.41574C10.4882 9.01324 9.9222 9.85158 9.66097 10.802C9.39974 11.7524 9.45777 12.7623 9.82615 13.6765C10.1945 14.5907 10.8529 15.3587 11.7 15.8624C9.93261 16.4365 8.43925 17.6428 7.50629 19.2499C7.46716 19.3067 7.4402 19.371 7.42709 19.4387C7.41398 19.5063 7.41501 19.576 7.43013 19.6433C7.44524 19.7106 7.4741 19.774 7.5149 19.8296C7.5557 19.8852 7.60755 19.9317 7.6672 19.9663C7.72686 20.0009 7.79301 20.0227 7.86152 20.0305C7.93003 20.0383 7.99941 20.0318 8.0653 20.0115C8.13119 19.9912 8.19216 19.9575 8.24439 19.9125C8.29662 19.8674 8.33898 19.8121 8.36879 19.7499C8.94028 18.7624 9.76141 17.9426 10.7498 17.3726C11.7382 16.8026 12.8591 16.5026 14 16.5026C15.141 16.5026 16.2619 16.8026 17.2503 17.3726C18.2387 17.9426 19.0598 18.7624 19.6313 19.7499C19.6611 19.8121 19.7035 19.8674 19.7557 19.9125C19.8079 19.9575 19.8689 19.9912 19.9348 20.0115C20.0007 20.0318 20.0701 20.0383 20.1386 20.0305C20.2071 20.0227 20.2732 20.0009 20.3329 19.9663C20.3925 19.9317 20.4444 19.8852 20.4852 19.8296C20.526 19.774 20.5549 19.7106 20.57 19.6433C20.5851 19.576 20.5861 19.5063 20.573 19.4387C20.5599 19.371 20.5329 19.3067 20.4938 19.2499ZM10.5 11.9999C10.5 11.3077 10.7053 10.631 11.0899 10.0554C11.4745 9.47988 12.0211 9.03127 12.6607 8.76637C13.3002 8.50146 14.0039 8.43215 14.6829 8.5672C15.3618 8.70224 15.9854 9.03559 16.4749 9.52507C16.9644 10.0146 17.2977 10.6382 17.4328 11.3171C17.5678 11.9961 17.4985 12.6998 17.2336 13.3393C16.9687 13.9789 16.5201 14.5255 15.9445 14.9101C15.369 15.2947 14.6923 15.4999 14 15.4999C13.0718 15.4999 12.1815 15.1312 11.5252 14.4748C10.8688 13.8184 10.5 12.9282 10.5 11.9999Z" fill="white"/>
<rect height="26.5" rx="13.25" stroke="white" stroke-width="1.5" width="26.5" x="0.75" y="0.75"/>
</svg>