<?xml version="1.0" encoding="utf-8"?>
<svg xmlns="http://www.w3.org/2000/svg" fill="none" height="16" viewBox="0 0 16 16" width="16">
<path d="M10.1027 9.86878C10.7735 9.42314 11.2831 8.77337 11.5559 8.01563C11.8288 7.25789 11.8504 6.43244 11.6177 5.66143C11.3849 4.89043 10.9102 4.21484 10.2636 3.73465C9.61704 3.25446 8.83307 2.99518 8.0277 2.99518C7.22233 2.99518 6.43836 3.25446 5.79181 3.73465C5.14525 4.21484 4.67047 4.89043 4.43772 5.66143C4.20497 6.43244 4.22662 7.25789 4.49947 8.01563C4.77231 8.77337 5.28186 9.42314 5.9527 9.86878C4.80831 10.2896 3.82025 11.0508 3.12145 12.05C3.07591 12.1028 3.0419 12.1645 3.02161 12.2312C3.00132 12.2979 2.99521 12.3681 3.00365 12.4373C3.0121 12.5065 3.03492 12.5731 3.07065 12.633C3.10638 12.6929 3.15423 12.7446 3.21114 12.7849C3.26804 12.8251 3.33273 12.853 3.40106 12.8668C3.46939 12.8806 3.53985 12.88 3.60792 12.8649C3.67598 12.8499 3.74015 12.8208 3.7963 12.7794C3.85244 12.7381 3.89933 12.6855 3.93395 12.625C4.396 11.9686 5.00911 11.433 5.72158 11.0632C6.43405 10.6934 7.22499 10.5004 8.0277 10.5004C8.83041 10.5004 9.62135 10.6934 10.3338 11.0632C11.0463 11.433 11.6594 11.9686 12.1215 12.625C12.1561 12.6855 12.203 12.7381 12.2591 12.7794C12.3153 12.8208 12.3794 12.8499 12.4475 12.8649C12.5156 12.88 12.586 12.8806 12.6543 12.8668C12.7227 12.853 12.7874 12.8251 12.8443 12.7849C12.9012 12.7446 12.949 12.6929 12.9848 12.633C13.0205 12.5731 13.0433 12.5065 13.0518 12.4373C13.0602 12.3681 13.0541 12.2979 13.0338 12.2312C13.0135 12.1645 12.9795 12.1028 12.934 12.05C12.2352 11.0508 11.2471 10.2896 10.1027 9.86878ZM5.2777 6.75003C5.2777 6.20613 5.43899 5.67444 5.74116 5.22221C6.04333 4.76997 6.47283 4.4175 6.97532 4.20936C7.47782 4.00122 8.03075 3.94676 8.5642 4.05287C9.09765 4.15898 9.58765 4.42089 9.97225 4.80548C10.3568 5.19008 10.6188 5.68008 10.7249 6.21353C10.831 6.74698 10.7765 7.29991 10.5684 7.80241C10.3602 8.3049 10.0078 8.73439 9.55552 9.03657C9.10328 9.33874 8.5716 9.50003 8.0277 9.50003C7.29836 9.50003 6.59888 9.2103 6.08316 8.69457C5.56743 8.17885 5.2777 7.47937 5.2777 6.75003Z" fill="#9DA1A7"/>
</svg>