<?xml version="1.0" encoding="utf-8"?>
<svg xmlns="http://www.w3.org/2000/svg" fill="none" height="24" viewBox="0 0 25 24" width="25">
<path d="M12.6255 17.25C12.4267 17.2473 12.2361 17.1704 12.0911 17.0343L4.59108 9.53435C4.47149 9.38862 4.41037 9.20363 4.41962 9.01534C4.42886 8.82705 4.50782 8.64893 4.64112 8.51563C4.77442 8.38233 4.95254 8.30338 5.14083 8.29413C5.32912 8.28488 5.51411 8.346 5.65983 8.4656L12.6255 15.4406L19.5911 8.4656C19.7368 8.346 19.9218 8.28488 20.1101 8.29413C20.2984 8.30338 20.4765 8.38233 20.6098 8.51563C20.7431 8.64893 20.8221 8.82705 20.8313 9.01534C20.8406 9.20363 20.7794 9.38862 20.6598 9.53435L13.1598 17.0343C13.0148 17.1704 12.8242 17.2473 12.6255 17.25Z" fill="#DEE0E2"/>
</svg>