<?xml version="1.0" encoding="utf-8"?>
<svg xmlns="http://www.w3.org/2000/svg" fill="none" height="16" viewBox="0 0 17 16" width="17">
<path d="M4.17066 14.5C3.99941 14.5001 3.8312 14.4548 3.68316 14.3687C3.52754 14.2833 3.39781 14.1576 3.30762 14.0047C3.21744 13.8518 3.17012 13.6775 3.17066 13.5V2.49998C3.17012 2.32248 3.21744 2.14812 3.30762 1.99524C3.39781 1.84235 3.52754 1.71661 3.68316 1.63123C3.83651 1.54188 4.01146 1.49637 4.18891 1.49968C4.36636 1.50299 4.53949 1.55498 4.68941 1.64998L13.6894 7.14373C13.8369 7.23272 13.9589 7.35831 14.0436 7.50833C14.1283 7.65835 14.1728 7.8277 14.1728 7.99998C14.1728 8.17226 14.1283 8.34161 14.0436 8.49163C13.9589 8.64165 13.8369 8.76724 13.6894 8.85623L4.68941 14.35C4.53435 14.4485 4.35435 14.5005 4.17066 14.5ZM4.17066 2.49998V13.5L13.1707 7.99998L4.17066 2.49998Z" fill="#9DA1A7"/>
</svg>